<svg width="20" height="20" viewBox="0 0 20 20" fill="none" xmlns="http://www.w3.org/2000/svg">
<g clip-path="url(#clip0_846_201)">
<path fill-rule="evenodd" clip-rule="evenodd" d="M12.0938 14.3789C11.0539 15.0142 9.83157 15.3803 8.52377 15.3803C4.73667 15.3803 1.66663 12.3103 1.66663 8.52316C1.66663 4.73606 4.73667 1.66602 8.52377 1.66602C12.3109 1.66602 15.3809 4.73606 15.3809 8.52316C15.3809 9.83096 15.0148 11.0533 14.3795 12.0931L17.0952 14.8089C17.7549 15.4685 17.7615 16.4283 17.0952 17.0946C16.4344 17.7553 15.4658 17.7509 14.8095 17.0946L12.0938 14.3789ZM8.52377 13.0946C11.0485 13.0946 13.0952 11.0479 13.0952 8.52316C13.0952 5.99843 11.0485 3.95173 8.52377 3.95173C5.99904 3.95173 3.95234 5.99843 3.95234 8.52316C3.95234 11.0479 5.99904 13.0946 8.52377 13.0946Z" fill="#B9BABB"/>
</g>
<defs>
<clipPath id="clip0_846_201">
<rect width="16" height="16" fill="white" transform="translate(1.66663 1.66602)"/>
</clipPath>
</defs>
</svg>
